# xmcd
#
# Track frame offsets: 
#        150
#        13637
#        29987
#        41705
#        54187
#        68987
#        87055
#        105087
#        123545
#        141312
#        157022
#        174417
#
# Disc length: 2468 seconds
#
# Revision: 0
# Processed by: cddbd v1.5.2PL0 Copyright (c) Steve Scherf et al.
# Submitted via: ExactAudioCopy v0.99pb5
#
DISCID=9e09a20c
DTITLE=Various Artist - I Love the Nightlife (cocktail party music)
DYEAR=2002
DGENRE=R&B
TTITLE0=I Love The Nightlife (Alicia Bridges 1978)
TTITLE1=Don't Leave Me This Way (Thelma Houston 1976)
TTITLE2=Baby Love (The Supremes 1964)
TTITLE3=I Heard It Through The Grapevine (Gladys Knight 1967)
TTITLE4=I Will Survive (Gloria Gaynor 1978)
TTITLE5=New Attitude (Patti LaBelle 1984)
TTITLE6=Finally (CeCe Peniston 1991)
TTITLE7=And I'm Telling You I'm Not Going (Jennifer Holliday 1982)
TTITLE8=Lady Marmalade (LaBelle 1974)
TTITLE9=Never Knew Love Like This Before (Stephanie Mills 1980)
TTITLE10=I'm Every Woman (Chaka Khan 1978)
TTITLE11=Respect (Aretha Franklin )
EXTD=
EXTT0=
EXTT1=
EXTT2=
EXTT3=
EXTT4=
EXTT5=
EXTT6=
EXTT7=
EXTT8=
EXTT9=
EXTT10=
EXTT11=
PLAYORDER=
